<svg width="953" height="703" viewBox="0 0 953 703" fill="none" xmlns="http://www.w3.org/2000/svg">
<g style="mix-blend-mode:soft-light" opacity="0.68">
<path d="M0.660645 26.4286H952.089V687C952.089 695.837 944.926 703 936.089 703H16.6607C7.82413 703 0.660645 695.837 0.660645 687V26.4286Z" fill="white"/>
</g>
<path d="M0 10.5714C0 4.73299 4.73299 0 10.5714 0H940.857C946.696 0 951.429 4.73299 951.429 10.5714V26.4286H0V10.5714Z" fill="#F2F2F5"/>
<path d="M19.8214 13.2143C19.8214 15.4037 18.0465 17.1786 15.8571 17.1786C13.6677 17.1786 11.8928 15.4037 11.8928 13.2143C11.8928 11.0249 13.6677 9.25 15.8571 9.25C18.0465 9.25 19.8214 11.0249 19.8214 13.2143Z" fill="#F3605C"/>
<path d="M35.6787 13.2143C35.6787 15.4037 33.9038 17.1786 31.7144 17.1786C29.525 17.1786 27.7501 15.4037 27.7501 13.2143C27.7501 11.0249 29.525 9.25 31.7144 9.25C33.9038 9.25 35.6787 11.0249 35.6787 13.2143Z" fill="#F8BE39"/>
<path d="M51.5357 13.2143C51.5357 15.4037 49.7609 17.1786 47.5715 17.1786C45.382 17.1786 43.6072 15.4037 43.6072 13.2143C43.6072 11.0249 45.382 9.25 47.5715 9.25C49.7609 9.25 51.5357 11.0249 51.5357 13.2143Z" fill="#50C845"/>
</svg>
